<svg width="24" height="25" viewBox="0 0 24 25" fill="none" xmlns="http://www.w3.org/2000/svg">
<path d="M8.67984 6.74426C6.94847 6.74426 5.53809 8.15464 5.53809 9.88602C5.53809 11.621 6.94847 13.0278 8.67984 13.0278C10.4112 13.0278 11.8216 11.621 11.8216 9.88602C11.8216 8.15464 10.4112 6.74426 8.67984 6.74426ZM8.70431 9.52289C9.74454 9.80216 9.87715 10.4375 9.88417 10.6993C9.90163 11.1915 9.55956 11.6593 9.05682 11.8373C9.02893 11.8477 8.99745 11.8513 8.96955 11.8617V12.3296H8.27139V11.8513C7.92932 11.7539 7.58024 11.5061 7.2835 11.038L7.8629 10.6156C8.25733 11.2443 8.67624 11.1812 8.84033 11.1218C9.03934 11.052 9.19284 10.8775 9.18599 10.7274C9.18256 10.5807 9.00802 10.3783 8.53677 10.2527C7.49654 9.97003 7.36393 9.33465 7.35691 9.07661C7.33945 8.58055 7.68153 8.11274 8.18426 7.93476C8.21215 7.92775 8.24363 7.92074 8.27153 7.91388L8.27137 7.44248H8.96954V7.92417C9.30819 8.02547 9.66069 8.26624 9.95743 8.73752L9.37803 9.15642C8.9836 8.52807 8.56468 8.59445 8.40059 8.65023C8.20158 8.72004 8.04808 8.89459 8.05494 9.04856C8.05852 9.19489 8.23306 9.3939 8.70431 9.52295L8.70431 9.52289Z" fill="#272525"/>
<path d="M13.3679 14.5741C13.7727 14.1727 14.1218 13.7188 14.4081 13.2267L15.4588 13.5094L15.5844 13.2515C16.0174 12.3575 16.2723 11.4079 16.3421 10.427L16.3595 10.1373L15.3053 9.85464C15.3018 8.70609 15.0015 7.58902 14.436 6.5977L15.204 5.82972L15.0434 5.59237C14.7782 5.19094 14.464 4.81034 14.1079 4.45444C13.7554 4.10193 13.3714 3.78775 12.9734 3.51861L12.7361 3.36152L11.9681 4.12919C10.9802 3.56411 9.85952 3.26382 8.71113 3.26039L8.42828 2.20612L8.142 2.227C7.16114 2.2898 6.208 2.54429 5.31442 2.97723L5.05604 3.10284L5.33873 4.15352C4.84658 4.44323 4.39277 4.79232 3.98775 5.19734C3.5829 5.59849 3.23381 6.05262 2.94752 6.54473L1.897 6.2625L1.77139 6.52088C1.33845 7.41446 1.08368 8.3676 1.02088 9.34847L1 9.63475L2.05427 9.91744C2.0577 11.066 2.35442 12.1831 2.92355 13.1744L2.15557 13.9424L2.31266 14.1797C2.5779 14.578 2.89565 14.9617 3.24816 15.3181C3.60426 15.6706 3.98467 15.9845 4.3861 16.2502L4.62344 16.4107L5.39143 15.6427C6.37931 16.2083 7.49997 16.5081 8.64836 16.512L8.93106 17.5663L9.22076 17.5484C10.2016 17.4785 11.1548 17.2237 12.0449 16.7908L12.3033 16.6652L12.0206 15.6145C12.5126 15.3283 12.9664 14.9792 13.3679 14.5741L13.3679 14.5741ZM8.66221 14.4066C6.15583 14.4066 4.12412 12.3749 4.12412 9.86849C4.12412 7.36211 6.15583 5.3304 8.66221 5.3304C11.1686 5.3304 13.2003 7.36211 13.2003 9.86849C13.2003 12.3749 11.1686 14.4066 8.66221 14.4066Z" fill="#272525"/>
<path d="M21.8857 18.2465C21.8857 17.9253 21.8474 17.6041 21.774 17.2935L22.35 16.9585L22.2557 16.6865C22.0567 16.1071 21.7495 15.5762 21.3481 15.1117L21.1596 14.8953L20.5767 15.2303C20.1088 14.7867 19.5469 14.4623 18.9325 14.2774V13.6141L18.6498 13.5583C18.0668 13.4396 17.4106 13.4396 16.8276 13.5583L16.5449 13.6141V14.277C15.9306 14.462 15.3684 14.7866 14.9008 15.23L14.3214 14.895L14.1328 15.1111C13.7279 15.5719 13.4206 16.1029 13.2217 16.6859L13.124 16.9578L13.7034 17.2929C13.6302 17.604 13.5917 17.9252 13.5917 18.2459C13.5917 18.5668 13.63 18.8883 13.7034 19.1989L13.124 19.5339L13.2217 19.8059C13.4207 20.3888 13.7279 20.9195 14.1328 21.3806L14.3214 21.5968L14.9008 21.2617C15.3686 21.7054 15.9305 22.0297 16.5449 22.2147V22.8777L16.8276 22.9334C17.1173 22.9941 17.4244 23.0256 17.7386 23.0256C18.0528 23.0256 18.36 22.9938 18.6497 22.9344L18.9324 22.8786L18.9325 22.2157C19.5468 22.0307 20.109 21.7061 20.5767 21.2627L21.1596 21.5977L21.3482 21.3816C21.7496 20.9173 22.0568 20.3864 22.2558 19.8068L22.3501 19.5348L21.7741 19.1998C21.8474 18.8889 21.8857 18.5677 21.8857 18.2465L21.8857 18.2465ZM17.7386 20.6901C16.3912 20.6901 15.295 19.5939 15.295 18.2465C15.295 16.8991 16.3912 15.8029 17.7386 15.8029C19.086 15.8029 20.1822 16.8991 20.1822 18.2465C20.1822 19.5939 19.086 20.6901 17.7386 20.6901Z" fill="#272525"/>
<path d="M19.4842 10.9157V11.2648H20.1823V10.9157C20.1823 9.95233 20.9643 9.1703 21.9277 9.1703H22.2768V8.47213H21.9277C20.9643 8.47213 20.1823 7.6901 20.1823 6.72671V6.37762H19.4842V6.72671C19.4842 7.6901 18.7021 8.47213 17.7387 8.47213H17.3896V9.1703H17.7387C18.7021 9.1703 19.4842 9.95233 19.4842 10.9157Z" fill="#272525"/>
</svg>
