<svg width="24" height="25" viewBox="0 0 24 25" fill="none" xmlns="http://www.w3.org/2000/svg">
<path fill-rule="evenodd" clip-rule="evenodd" d="M17 2.20612H7C5.34315 2.20612 4 3.54926 4 5.20612V15.852C4.79613 15.1394 5.84747 14.7061 7 14.7061H20V5.20612C20 3.54926 18.6569 2.20612 17 2.20612ZM8 5.45612C7.58579 5.45612 7.25 5.7919 7.25 6.20612C7.25 6.62033 7.58579 6.95612 8 6.95612H16C16.4142 6.95612 16.75 6.62033 16.75 6.20612C16.75 5.7919 16.4142 5.45612 16 5.45612H8ZM7.25 10.2061C7.25 9.7919 7.58579 9.45612 8 9.45612H12C12.4142 9.45612 12.75 9.7919 12.75 10.2061C12.75 10.6203 12.4142 10.9561 12 10.9561H8C7.58579 10.9561 7.25 10.6203 7.25 10.2061ZM7 16.2061H20V19.2061C20 20.863 18.6569 22.2061 17 22.2061H7C5.34315 22.2061 4 20.863 4 19.2061C4 17.5493 5.34315 16.2061 7 16.2061Z" fill="#28303F"/>
</svg>
