<svg width="24" height="25" viewBox="0 0 24 25" fill="none" xmlns="http://www.w3.org/2000/svg">
<path d="M15.5714 16.8918H19.8L15.5714 21.1204V16.8918ZM14.5143 16.3633V21.1204H6.05714C5.47336 21.1204 5 20.6475 5 20.0633V5.26326C5 4.67899 5.47336 4.20612 6.05714 4.20612H18.7429C19.3272 4.20612 19.8 4.67899 19.8 5.26326V15.8347H15.0429C14.7507 15.8347 14.5143 16.0711 14.5143 16.3633ZM7.11429 7.90612C7.11429 8.19825 7.35073 8.43469 7.64286 8.43469H17.1571C17.4493 8.43469 17.6857 8.19825 17.6857 7.90612C17.6857 7.61398 17.4493 7.37754 17.1571 7.37754H7.64286C7.35073 7.37754 7.11429 7.61398 7.11429 7.90612ZM7.11429 11.0775C7.11429 11.3697 7.35073 11.6061 7.64286 11.6061H17.1571C17.4493 11.6061 17.6857 11.3697 17.6857 11.0775C17.6857 10.7854 17.4493 10.549 17.1571 10.549H7.64286C7.35073 10.549 7.11429 10.7854 7.11429 11.0775ZM17.1571 14.7775C17.4493 14.7775 17.6857 14.5411 17.6857 14.249C17.6857 13.9568 17.4493 13.7204 17.1571 13.7204H7.64286C7.35073 13.7204 7.11429 13.9568 7.11429 14.249C7.11429 14.5411 7.35073 14.7775 7.64286 14.7775H17.1571Z" fill="#272525"/>
</svg>
