<svg width="24" height="25" viewBox="0 0 24 25" fill="none" xmlns="http://www.w3.org/2000/svg">
<path d="M12 6.70618V9.70618C11.999 10.3689 11.7352 11.0041 11.2666 11.4727C10.798 11.9413 10.1628 12.205 9.50011 12.2061H6.50011C5.8373 12.205 5.20209 11.9413 4.73347 11.4727C4.26486 11.0041 4.00117 10.3689 4.00007 9.70618V6.70618C4.00114 6.04337 4.26485 5.40815 4.73347 4.93954C5.2021 4.47092 5.8373 4.20723 6.50011 4.20613H9.50011C10.1628 4.2072 10.798 4.47091 11.2666 4.93954C11.7352 5.40815 11.9989 6.04337 12 6.70618ZM18.3 4.20613H15.3C14.6373 4.2072 14.0021 4.47091 13.5335 4.93954C13.0649 5.40815 12.8012 6.04337 12.8001 6.70618V9.70618C12.8012 10.3689 13.0649 11.0041 13.5335 11.4727C14.0021 11.9413 14.6373 12.205 15.3 12.2061H18.3C18.9628 12.205 19.598 11.9413 20.0667 11.4727C20.5353 11.0041 20.799 10.3689 20.8001 9.70618V6.70618C20.799 6.04337 20.5353 5.40815 20.0667 4.93954C19.598 4.47092 18.9628 4.20723 18.3 4.20613ZM9.49991 13.0062H6.50005C5.83723 13.0073 5.20202 13.271 4.73341 13.7397C4.26479 14.2083 4.0011 14.8435 4 15.5062V18.5062C4.00107 19.169 4.26478 19.8042 4.73341 20.2728C5.20203 20.7414 5.83723 21.0051 6.50005 21.0062H9.50005C10.1627 21.0051 10.7979 20.7414 11.2665 20.2728C11.7352 19.8042 11.9989 19.169 12 18.5062V15.5062C11.9989 14.8435 11.7352 14.2083 11.2665 13.7397C10.7979 13.271 10.1627 13.0073 9.50005 13.0062H9.49991ZM18.3 13.0062H15.3C14.6373 13.0073 14.0021 13.271 13.5335 13.7397C13.0649 14.2083 12.8012 14.8435 12.8001 15.5062V18.5062C12.8012 19.169 13.0649 19.8042 13.5335 20.2728C14.0021 20.7414 14.6373 21.0051 15.3 21.0062H18.3C18.9628 21.0051 19.598 20.7414 20.0667 20.2728C20.5353 19.8042 20.799 19.169 20.8001 18.5062V15.5062C20.799 14.8435 20.5353 14.2083 20.0667 13.7397C19.598 13.271 18.9628 13.0073 18.3 13.0062Z" fill="#272525"/>
</svg>
