<svg width="24" height="25" viewBox="0 0 24 25" fill="none" xmlns="http://www.w3.org/2000/svg">
<path d="M2.70422 12.7459C2.36948 12.6128 2 12.8556 2 13.2158V18.5811C2 20.7903 3.79086 22.5811 6 22.5811H18C20.2091 22.5811 22 20.7903 22 18.5811V13.2159C22 12.8557 21.6305 12.6129 21.2958 12.7459C20.029 13.2494 18.4079 13.7688 16.5036 14.1148C15.7992 14.2428 15.2884 14.8482 14.9597 15.4841C14.461 16.449 13.454 17.1085 12.293 17.1085H11.7069C10.5459 17.1085 9.53891 16.449 9.0402 15.4841C8.71148 14.8481 8.20068 14.2428 7.4963 14.1148C5.59207 13.7688 3.97099 13.2493 2.70422 12.7459Z" fill="#28303F"/>
<path fill-rule="evenodd" clip-rule="evenodd" d="M18 6.58112H6C3.79086 6.58112 2 8.37198 2 10.5811C2 10.7982 2.10742 10.9996 2.29492 11.109C3.14278 11.6037 5.7673 12.9754 9.49817 13.4382V13.8952C9.49817 14.9998 10.3936 15.8952 11.4982 15.8952H12.5016C13.6062 15.8952 14.5016 14.9998 14.5016 13.8952V13.4383C18.2326 12.9755 20.8572 11.6037 21.7051 11.109C21.8926 10.9996 22 10.7982 22 10.5811C22 8.37198 20.2091 6.58112 18 6.58112ZM11.0751 12.6755C10.9647 12.6755 10.8751 12.765 10.8751 12.8755V13.8643C10.8751 14.3061 11.2333 14.6643 11.6751 14.6643H12.3248C12.7666 14.6643 13.1248 14.3061 13.1248 13.8643V12.8755C13.1248 12.765 13.0352 12.6755 12.9248 12.6755H11.0751Z" fill="#28303F"/>
<path fill-rule="evenodd" clip-rule="evenodd" d="M11 3.33112C9.75736 3.33112 8.75 4.33848 8.75 5.58112V6.58112C8.75 6.99533 8.41421 7.33112 8 7.33112C7.58579 7.33112 7.25 6.99533 7.25 6.58112V5.58112C7.25 3.51005 8.92893 1.83112 11 1.83112H13C15.0711 1.83112 16.75 3.51005 16.75 5.58112V6.58112C16.75 6.99533 16.4142 7.33112 16 7.33112C15.5858 7.33112 15.25 6.99533 15.25 6.58112V5.58112C15.25 4.33848 14.2426 3.33112 13 3.33112H11Z" fill="#28303F"/>
</svg>
