<svg width="19" height="14" viewBox="0 0 19 14" fill="none" xmlns="http://www.w3.org/2000/svg">
<path d="M18.9007 11.5854V13.2654H3.92917e-06V11.4875C-0.000933579 11.1119 0.16594 10.7557 0.455078 10.516C1.47494 9.69296 2.57195 8.97029 3.73056 8.35798C3.80543 8.53275 4.5312 10.2012 4.99392 10.9058V10.9057C5.00035 10.9189 5.01375 10.9274 5.02848 10.9274C5.04321 10.9274 5.0566 10.9189 5.06303 10.9057C5.15705 10.6235 5.51999 9.64421 6.07096 9.71144H6.0711C6.08837 9.71667 6.10686 9.70836 6.11449 9.69202C6.12212 9.67582 6.11676 9.65626 6.10176 9.64622C5.68512 9.31408 4.62909 8.45963 4.22784 7.9835V6.83346C4.04918 6.5297 3.92744 6.19595 3.86877 5.84843C3.73056 5.83691 3.55002 5.64485 3.35421 4.95566C3.10269 4.06865 3.33881 3.89201 3.56729 3.89387C3.44635 3.37543 3.13913 1.57451 4.47936 0.756585C4.31824 0.620512 4.22489 0.420424 4.22396 0.209488C4.22396 0.209488 5.75999 0.382257 6.49151 0.230649C7.22303 0.0789074 8.02754 0.658809 8.15235 1.21756C8.15235 1.21756 9.6518 1.21756 9.07017 3.896C9.30441 3.88635 9.55981 4.04774 9.30053 4.95779C9.10848 5.64711 8.91657 5.84106 8.78597 5.85056V5.85042C8.72758 6.19798 8.60584 6.53172 8.4269 6.83535V7.9759C8.02363 8.45202 6.96962 9.30834 6.55109 9.63862C6.53609 9.64866 6.5306 9.66808 6.53837 9.68442C6.546 9.70076 6.56449 9.70906 6.58176 9.70384C7.13273 9.63661 7.49568 10.6139 7.58969 10.8981C7.59612 10.9113 7.60965 10.9198 7.62425 10.9198C7.63898 10.9198 7.6525 10.9113 7.65893 10.8981C8.12165 10.1935 8.84741 8.525 8.92229 8.35024C9.70202 8.76554 10.4555 9.2284 11.1782 9.73655C11.4217 9.65539 11.659 9.55735 11.8887 9.44271L11.9309 9.4178C12.0507 9.34026 12.1229 9.20726 12.1229 9.06449V8.34836C10.2279 8.36564 9.66924 7.55348 9.66924 7.55348C9.66924 7.55348 10.7522 7.5362 10.685 4.67348C10.6176 1.81076 11.9251 1.34804 12.4167 1.16948C13.847 0.626119 14.5651 1.49011 14.5651 1.49011C16.224 1.33649 16.6772 3.14895 16.4851 5.21113C16.2931 7.27325 17.4145 7.59574 17.4145 7.59574C16.6369 8.39062 14.9953 8.34067 14.9953 8.34067V9.07993H14.9952C14.9952 9.2227 15.0673 9.35569 15.1872 9.43325L15.2372 9.46392C15.8132 9.76539 16.9959 10.0784 17.019 10.0899C17.406 10.1949 17.7822 10.337 18.1421 10.5142C18.564 10.7152 18.8511 11.1209 18.9005 11.5855L18.9007 11.5854Z" fill="#272525"/>
</svg>
