<svg width="24" height="25" viewBox="0 0 24 25" fill="none" xmlns="http://www.w3.org/2000/svg">
<path fill-rule="evenodd" clip-rule="evenodd" d="M5.99961 2.60614C5.36309 2.60614 4.75264 2.859 4.30255 3.30908C3.85247 3.75917 3.59961 4.36962 3.59961 5.00614V21.8061L7.79961 19.4061L11.9996 21.8061L16.1996 19.4061L20.3996 21.8061V5.00614C20.3996 4.36962 20.1468 3.75917 19.6967 3.30908C19.2466 2.859 18.6361 2.60614 17.9996 2.60614H5.99961ZM8.99961 6.20614C8.52222 6.20614 8.06438 6.39578 7.72682 6.73335C7.38925 7.07091 7.19961 7.52875 7.19961 8.00614C7.19961 8.48353 7.38925 8.94137 7.72682 9.27893C8.06438 9.6165 8.52222 9.80614 8.99961 9.80614C9.477 9.80614 9.93484 9.6165 10.2724 9.27893C10.61 8.94137 10.7996 8.48353 10.7996 8.00614C10.7996 7.52875 10.61 7.07091 10.2724 6.73335C9.93484 6.39578 9.477 6.20614 8.99961 6.20614ZM16.448 6.55774C16.223 6.33278 15.9178 6.2064 15.5996 6.2064C15.2814 6.2064 14.9762 6.33278 14.7512 6.55774L7.55121 13.7577C7.4366 13.8684 7.34518 14.0009 7.28229 14.1473C7.2194 14.2937 7.18629 14.4511 7.18491 14.6105C7.18352 14.7698 7.21389 14.9278 7.27422 15.0753C7.33456 15.2228 7.42366 15.3567 7.53633 15.4694C7.64901 15.5821 7.78299 15.6712 7.93046 15.7315C8.07794 15.7919 8.23596 15.8222 8.39529 15.8208C8.55463 15.8195 8.71209 15.7864 8.85849 15.7235C9.0049 15.6606 9.13731 15.5692 9.24801 15.4545L16.448 8.25454C16.673 8.02951 16.7994 7.72434 16.7994 7.40614C16.7994 7.08794 16.673 6.78277 16.448 6.55774ZM14.9996 12.2061C14.5222 12.2061 14.0644 12.3958 13.7268 12.7333C13.3893 13.0709 13.1996 13.5288 13.1996 14.0061C13.1996 14.4835 13.3893 14.9414 13.7268 15.2789C14.0644 15.6165 14.5222 15.8061 14.9996 15.8061C15.477 15.8061 15.9348 15.6165 16.2724 15.2789C16.61 14.9414 16.7996 14.4835 16.7996 14.0061C16.7996 13.5288 16.61 13.0709 16.2724 12.7333C15.9348 12.3958 15.477 12.2061 14.9996 12.2061Z" fill="black"/>
</svg>
