<svg width="24" height="25" viewBox="0 0 24 25" fill="none" xmlns="http://www.w3.org/2000/svg">
<path fill-rule="evenodd" clip-rule="evenodd" d="M8.75 2.28571C8.75 1.87149 8.41421 1.53571 8 1.53571C7.58579 1.53571 7.25 1.87149 7.25 2.28571V3.78571H7C4.79086 3.78571 3 5.57657 3 7.78571V18.2857C3 20.4948 4.79086 22.2857 7 22.2857H17C19.2091 22.2857 21 20.4948 21 18.2857V7.78571C21 5.57657 19.2091 3.78571 17 3.78571H16.75V2.28571C16.75 1.87149 16.4142 1.53571 16 1.53571C15.5858 1.53571 15.25 1.87149 15.25 2.28571V3.78571H8.75V2.28571ZM8 12.5357C7.58579 12.5357 7.25 12.8715 7.25 13.2857C7.25 13.6999 7.58579 14.0357 8 14.0357H16C16.4142 14.0357 16.75 13.6999 16.75 13.2857C16.75 12.8715 16.4142 12.5357 16 12.5357H8ZM7.25 9.28571C7.25 8.87149 7.58579 8.53571 8 8.53571H16C16.4142 8.53571 16.75 8.87149 16.75 9.28571C16.75 9.69992 16.4142 10.0357 16 10.0357H8C7.58579 10.0357 7.25 9.69992 7.25 9.28571ZM8 16.5357C7.58579 16.5357 7.25 16.8715 7.25 17.2857C7.25 17.6999 7.58579 18.0357 8 18.0357H12C12.4142 18.0357 12.75 17.6999 12.75 17.2857C12.75 16.8715 12.4142 16.5357 12 16.5357H8Z" fill="#28303F"/>
</svg>
