<svg width="24" height="25" viewBox="0 0 24 25" fill="none" xmlns="http://www.w3.org/2000/svg">
<path fill-rule="evenodd" clip-rule="evenodd" d="M22 12.2061C22 15.2195 20.6672 17.9215 18.5588 19.7549C16.8031 21.2818 14.5095 22.2061 12 22.2061C9.49052 22.2061 7.19694 21.2817 5.44117 19.7549C3.33285 17.9215 2 15.2195 2 12.2061C2 6.68327 6.47715 2.20612 12 2.20612C17.5228 2.20612 22 6.68327 22 12.2061ZM15 9.20612C15 7.54926 13.6569 6.20612 12 6.20612C10.3431 6.20612 9 7.54926 9 9.20612C9 10.863 10.3431 12.2061 12 12.2061C13.6569 12.2061 15 10.863 15 9.20612ZM12 14.2061C13.7127 14.2061 14.839 15.1227 15.6332 16.1416C16.2257 16.9018 16.0218 18.0168 15.1622 18.4528C14.2124 18.9346 13.1379 19.2061 12 19.2061C10.8621 19.2061 9.78761 18.9346 8.83779 18.4528C7.97822 18.0168 7.77427 16.9018 8.3668 16.1416C9.16096 15.1227 10.2873 14.2061 12 14.2061Z" fill="#28303F"/>
</svg>
