<svg width="18" height="21" viewBox="0 0 18 21" fill="none" xmlns="http://www.w3.org/2000/svg">
<path fill-rule="evenodd" clip-rule="evenodd" d="M9 20.2061C4.757 20.2061 2.636 20.2061 1.318 18.7411C-1.19209e-07 17.2781 0 14.9201 0 10.2061C0 5.49212 -1.19209e-07 3.13512 1.318 1.67012C2.636 0.205116 4.758 0.206116 9 0.206116C13.242 0.206116 15.364 0.206116 16.682 1.67012C18 3.13612 18 5.49212 18 10.2061C18 14.9201 18 17.2771 16.682 18.7411C15.364 20.2051 13.242 20.2061 9 20.2061ZM12 4.20612H6C5.535 4.20612 5.303 4.20612 5.112 4.25712C4.85787 4.32531 4.62614 4.45915 4.44009 4.6452C4.25403 4.83126 4.12019 5.06298 4.052 5.31712C4 5.51012 4 5.74212 4 6.20612C4 6.67012 4 6.90312 4.051 7.09412C4.11919 7.34825 4.25303 7.57997 4.43909 7.76603C4.62514 7.95208 4.85687 8.08592 5.111 8.15412C5.304 8.20612 5.536 8.20612 6 8.20612H12C12.465 8.20612 12.697 8.20612 12.888 8.15512C13.1421 8.08692 13.3739 7.95308 13.5599 7.76703C13.746 7.58097 13.8798 7.34925 13.948 7.09512C14 6.90212 14 6.67012 14 6.20612C14 5.74212 14 5.50912 13.949 5.31812C13.8808 5.06398 13.747 4.83226 13.5609 4.6462C13.3749 4.46015 13.1431 4.32631 12.889 4.25812C12.697 4.20612 12.464 4.20612 12 4.20612ZM6 11.2061C6 11.4713 5.89464 11.7257 5.70711 11.9132C5.51957 12.1008 5.26522 12.2061 5 12.2061C4.73478 12.2061 4.48043 12.1008 4.29289 11.9132C4.10536 11.7257 4 11.4713 4 11.2061C4 10.9409 4.10536 10.6865 4.29289 10.499C4.48043 10.3115 4.73478 10.2061 5 10.2061C5.26522 10.2061 5.51957 10.3115 5.70711 10.499C5.89464 10.6865 6 10.9409 6 11.2061ZM9 12.2061C9.26522 12.2061 9.51957 12.1008 9.70711 11.9132C9.89464 11.7257 10 11.4713 10 11.2061C10 10.9409 9.89464 10.6865 9.70711 10.499C9.51957 10.3115 9.26522 10.2061 9 10.2061C8.73478 10.2061 8.48043 10.3115 8.29289 10.499C8.10536 10.6865 8 10.9409 8 11.2061C8 11.4713 8.10536 11.7257 8.29289 11.9132C8.48043 12.1008 8.73478 12.2061 9 12.2061ZM14 11.2061C14 11.4713 13.8946 11.7257 13.7071 11.9132C13.5196 12.1008 13.2652 12.2061 13 12.2061C12.7348 12.2061 12.4804 12.1008 12.2929 11.9132C12.1054 11.7257 12 11.4713 12 11.2061C12 10.9409 12.1054 10.6865 12.2929 10.499C12.4804 10.3115 12.7348 10.2061 13 10.2061C13.2652 10.2061 13.5196 10.3115 13.7071 10.499C13.8946 10.6865 14 10.9409 14 11.2061ZM13 16.2061C13.2652 16.2061 13.5196 16.1008 13.7071 15.9132C13.8946 15.7257 14 15.4713 14 15.2061C14 14.9409 13.8946 14.6865 13.7071 14.499C13.5196 14.3115 13.2652 14.2061 13 14.2061C12.7348 14.2061 12.4804 14.3115 12.2929 14.499C12.1054 14.6865 12 14.9409 12 15.2061C12 15.4713 12.1054 15.7257 12.2929 15.9132C12.4804 16.1008 12.7348 16.2061 13 16.2061ZM10 15.2061C10 15.4713 9.89464 15.7257 9.70711 15.9132C9.51957 16.1008 9.26522 16.2061 9 16.2061C8.73478 16.2061 8.48043 16.1008 8.29289 15.9132C8.10536 15.7257 8 15.4713 8 15.2061C8 14.9409 8.10536 14.6865 8.29289 14.499C8.48043 14.3115 8.73478 14.2061 9 14.2061C9.26522 14.2061 9.51957 14.3115 9.70711 14.499C9.89464 14.6865 10 14.9409 10 15.2061ZM5 16.2061C5.26522 16.2061 5.51957 16.1008 5.70711 15.9132C5.89464 15.7257 6 15.4713 6 15.2061C6 14.9409 5.89464 14.6865 5.70711 14.499C5.51957 14.3115 5.26522 14.2061 5 14.2061C4.73478 14.2061 4.48043 14.3115 4.29289 14.499C4.10536 14.6865 4 14.9409 4 15.2061C4 15.4713 4.10536 15.7257 4.29289 15.9132C4.48043 16.1008 4.73478 16.2061 5 16.2061Z" fill="black"/>
</svg>
