<svg width="24" height="24" viewBox="0 0 24 24" fill="none" xmlns="http://www.w3.org/2000/svg">
<path fill-rule="evenodd" clip-rule="evenodd" d="M3.5 5C3.10218 5 2.72064 5.15804 2.43934 5.43934C2.15804 5.72064 2 6.10218 2 6.5V17.5C2 17.8978 2.15804 18.2794 2.43934 18.5607C2.72064 18.842 3.10218 19 3.5 19H20.5C20.8978 19 21.2794 18.842 21.5607 18.5607C21.842 18.2794 22 17.8978 22 17.5V6.5C22 6.10218 21.842 5.72064 21.5607 5.43934C21.2794 5.15804 20.8978 5 20.5 5H3.5ZM18.5 10C18.5 10.5304 18.2893 11.0391 17.9142 11.4142C17.5391 11.7893 17.0304 12 16.5 12C15.9696 12 15.4609 11.7893 15.0858 11.4142C14.7107 11.0391 14.5 10.5304 14.5 10C14.5 9.46957 14.7107 8.96086 15.0858 8.58579C15.4609 8.21071 15.9696 8 16.5 8C17.0304 8 17.5391 8.21071 17.9142 8.58579C18.2893 8.96086 18.5 9.46957 18.5 10ZM12 9.5H5V8.5H12V9.5ZM12 11.5H5V10.5H12V11.5ZM5 13.5H12V12.5H5V13.5ZM12 15.5H5V14.5H12V15.5ZM15.196 12.739C15.0509 12.71 14.9012 12.7136 14.7576 12.7494C14.614 12.7853 14.4802 12.8526 14.3658 12.9464C14.2514 13.0403 14.1592 13.1583 14.096 13.2921C14.0327 13.4259 13.9999 13.572 14 13.72V16H19V13.72C19.0001 13.572 18.9673 13.4259 18.904 13.2921C18.8408 13.1583 18.7486 13.0403 18.6342 12.9464C18.5198 12.8526 18.386 12.7853 18.2424 12.7494C18.0988 12.7136 17.9491 12.71 17.804 12.739L16.696 12.961C16.5666 12.9869 16.4334 12.9869 16.304 12.961L15.196 12.739Z" fill="black"/>
</svg>
