<svg width="24" height="25" viewBox="0 0 24 25" fill="none" xmlns="http://www.w3.org/2000/svg">
<path d="M12 2.73822L12.117 2.74522C12.3402 2.77154 12.5481 2.8723 12.707 3.03123C12.8659 3.19016 12.9667 3.398 12.993 3.62122L13 3.73822V7.73822L13.005 7.88822C13.0408 8.36439 13.2458 8.81205 13.5829 9.15025C13.92 9.48845 14.3669 9.69488 14.843 9.73222L15 9.73822H19L19.117 9.74522C19.3402 9.77154 19.5481 9.8723 19.707 10.0312C19.8659 10.1902 19.9667 10.398 19.993 10.6212L20 10.7382V19.7382C20 20.5034 19.7077 21.2397 19.1827 21.7965C18.6578 22.3532 17.9399 22.6883 17.176 22.7332L17 22.7382H7C6.23479 22.7383 5.49849 22.4459 4.94174 21.9209C4.38499 21.396 4.04989 20.6781 4.005 19.9142L4 19.7382V5.73822C3.99996 4.97301 4.29233 4.23671 4.81728 3.67996C5.34224 3.12321 6.06011 2.78811 6.824 2.74322L7 2.73822H12ZM14.01 16.7382H14C13.7451 16.7385 13.5 16.8361 13.3146 17.0111C13.1293 17.186 13.0178 17.4252 13.0028 17.6796C12.9879 17.9341 13.0707 18.1846 13.2343 18.3801C13.3979 18.5755 13.6299 18.7011 13.883 18.7312L14.01 18.7382C14.2752 18.7382 14.5296 18.6329 14.7171 18.4453C14.9046 18.2578 15.01 18.0034 15.01 17.7382C15.01 17.473 14.9046 17.2186 14.7171 17.0311C14.5296 16.8436 14.2752 16.7382 14.01 16.7382ZM14.707 13.0312C14.5195 12.8437 14.2652 12.7384 14 12.7384C13.7348 12.7384 13.4805 12.8437 13.293 13.0312L9.293 17.0312C9.11084 17.2198 9.01005 17.4724 9.01233 17.7346C9.0146 17.9968 9.11977 18.2476 9.30518 18.433C9.49059 18.6184 9.7414 18.7236 10.0036 18.7259C10.2658 18.7282 10.5184 18.6274 10.707 18.4452L14.707 14.4452C14.8945 14.2577 14.9998 14.0034 14.9998 13.7382C14.9998 13.4731 14.8945 13.2187 14.707 13.0312ZM10.01 12.7382H10C9.74512 12.7385 9.49997 12.8361 9.31463 13.0111C9.1293 13.186 9.01776 13.4252 9.00283 13.6796C8.98789 13.9341 9.07067 14.1846 9.23426 14.3801C9.39785 14.5755 9.6299 14.7011 9.883 14.7312L10.01 14.7382C10.2752 14.7382 10.5296 14.6329 10.7171 14.4453C10.9046 14.2578 11.01 14.0034 11.01 13.7382C11.01 13.473 10.9046 13.2186 10.7171 13.0311C10.5296 12.8436 10.2752 12.7382 10.01 12.7382ZM14.999 3.73722L19 7.73822H15L14.999 3.73722Z" fill="black"/>
</svg>
