<svg width="24" height="25" viewBox="0 0 24 25" fill="none" xmlns="http://www.w3.org/2000/svg">
<path fill-rule="evenodd" clip-rule="evenodd" d="M19.0188 16.794L19.0194 4.06672L10.4449 4.10476V5.25152H17.8343V16.794L19.0188 16.794ZM16.9735 18.8393L16.9741 6.11205L8.39961 6.15009V7.29684H15.789V18.8394L16.9735 18.8393ZM14.1512 14.0795C14.1512 12.0047 12.4693 10.3229 10.3946 10.3229C8.31981 10.3229 6.63795 12.0049 6.63795 14.0795C6.63795 16.1539 8.3197 17.8361 10.3946 17.8361C12.4692 17.8361 14.1512 16.1541 14.1512 14.0795ZM19.88 3.20612V17.6924H17.8347V19.7377H15.7894V20.3067L14.3696 21.7264L13.3711 20.728L12.3585 21.7239L11.3711 20.7365L10.3669 21.7239L9.37962 20.7365L8.37526 21.7239L7.38196 20.7305L6.3862 21.7264L5 20.3405V7.29687H7.50106V5.25155H9.54653V3.20623L19.88 3.20612ZM11.6796 14.3194C11.9611 14.8654 11.8458 15.6769 11.3296 16.0653C11.1682 16.1868 10.9739 16.2631 10.7714 16.3035L10.839 16.8264H9.9258L9.99542 16.2877C9.80207 16.2396 9.62035 16.1562 9.46906 16.0325C9.17925 15.7959 9.02909 15.4425 8.96048 15.0822L9.65566 14.9253C9.71566 15.2982 9.9927 15.5929 10.4034 15.5929C10.6349 15.5929 10.8093 15.5341 10.9267 15.4164C11.0767 15.2661 11.1554 15.0389 11.0744 14.8397C10.9682 14.5785 10.6441 14.5028 10.3919 14.428C10.1071 14.3437 9.81112 14.2686 9.56653 14.0997C8.83703 13.5965 8.88815 12.3794 9.73289 12.011C9.81916 11.9733 9.91017 11.948 10.0028 11.9285L9.92581 11.3325H10.839L10.7608 11.9387C10.9127 11.9738 11.0592 12.0277 11.1891 12.1098C11.4637 12.2834 11.6125 12.5609 11.6778 12.8579L10.9486 13.0023C10.9134 12.8988 10.8577 12.8023 10.771 12.7326C10.6697 12.6515 10.535 12.6141 10.4024 12.61C10.1651 12.6022 9.85504 12.6638 9.7645 12.903C9.7144 13.0352 9.74828 13.1889 9.84933 13.291C9.9402 13.3825 10.1604 13.4777 10.5102 13.5769C10.8599 13.6761 11.1187 13.7789 11.2863 13.8848C11.4538 13.9909 11.5849 14.1357 11.6796 14.3194L11.6796 14.3194Z" fill="#272525"/>
</svg>
