<svg width="24" height="25" viewBox="0 0 24 25" fill="none" xmlns="http://www.w3.org/2000/svg">
<path fill-rule="evenodd" clip-rule="evenodd" d="M21.9298 6.45612C21.5787 4.60547 19.9528 3.20612 18 3.20612H6C4.04721 3.20612 2.42125 4.60547 2.0702 6.45612L21.9298 6.45612ZM22 7.95612V10.4561H2V7.95612L22 7.95612ZM2 11.9561L22 11.9561V14.2061C22 14.7584 21.5523 15.2061 21 15.2061H18C15.7909 15.2061 14 16.997 14 19.2061V20.2061C14 20.7584 13.5523 21.2061 13 21.2061H6C3.79086 21.2061 2 19.4153 2 17.2061V11.9561ZM7 17.2061C7 17.7584 6.55228 18.2061 6 18.2061C5.44772 18.2061 5 17.7584 5 17.2061C5 16.6538 5.44772 16.2061 6 16.2061C6.55228 16.2061 7 16.6538 7 17.2061ZM21 18.9561C21.4142 18.9561 21.75 18.6203 21.75 18.2061C21.75 17.7919 21.4142 17.4561 21 17.4561H17C16.5858 17.4561 16.25 17.7919 16.25 18.2061C16.25 18.6203 16.5858 18.9561 17 18.9561H21Z" fill="#28303F"/>
</svg>
