<svg width="24" height="25" viewBox="0 0 24 25" fill="none" xmlns="http://www.w3.org/2000/svg">
<path fill-rule="evenodd" clip-rule="evenodd" d="M2 6.20612C2 3.99698 3.79086 2.20612 6 2.20612H18C20.2091 2.20612 22 3.99698 22 6.20612V6.45612H2V6.20612ZM2 7.95612H22V18.2061C22 20.4153 20.2091 22.2061 18 22.2061H6C3.79086 22.2061 2 20.4153 2 18.2061V7.95612ZM12 10.4561C11.7159 10.4561 11.4562 10.6166 11.3292 10.8707L8.90715 15.7148L7.62404 13.7901C7.39427 13.4454 6.92862 13.3523 6.58397 13.5821C6.23933 13.8118 6.1462 14.2775 6.37596 14.6221L8.37596 17.6221C8.52426 17.8446 8.77977 17.9713 9.0466 17.9547C9.31344 17.9381 9.55126 17.7807 9.67082 17.5415L12.4635 11.9561H17C17.4142 11.9561 17.75 11.6203 17.75 11.2061C17.75 10.7919 17.4142 10.4561 17 10.4561H12ZM13.4697 13.6758C13.7626 13.3829 14.2374 13.3829 14.5303 13.6758L15.5 14.6455L16.4697 13.6758C16.7626 13.3829 17.2374 13.3829 17.5303 13.6758C17.8232 13.9687 17.8232 14.4436 17.5303 14.7364L16.5607 15.7061L17.5303 16.6758C17.8232 16.9687 17.8232 17.4436 17.5303 17.7364C17.2374 18.0293 16.7626 18.0293 16.4697 17.7364L15.5 16.7668L14.5303 17.7364C14.2374 18.0293 13.7626 18.0293 13.4697 17.7364C13.1768 17.4436 13.1768 16.9687 13.4697 16.6758L14.4393 15.7061L13.4697 14.7364C13.1768 14.4436 13.1768 13.9687 13.4697 13.6758Z" fill="#28303F"/>
</svg>
