<svg width="24" height="25" viewBox="0 0 24 25" fill="none" xmlns="http://www.w3.org/2000/svg">
<path fill-rule="evenodd" clip-rule="evenodd" d="M12 2.20612H18C19.6787 2.20612 21.1158 3.2402 21.7092 4.70612H8.29074C8.88413 3.2402 10.3213 2.20612 12 2.20612ZM2 12.2061V16.2061H6C7.10457 16.2061 8 15.3107 8 14.2061C8 13.1015 7.10457 12.2061 6 12.2061H2ZM22 6.20612H6C3.79086 6.20612 2 7.99698 2 10.2061V10.7061H6C7.933 10.7061 9.5 12.2731 9.5 14.2061C9.5 16.1391 7.933 17.7061 6 17.7061H2V18.2061C2 20.4153 3.79086 22.2061 6 22.2061H18C20.2091 22.2061 22 20.4153 22 18.2061V6.20612Z" fill="#28303F"/>
</svg>
